<svg xmlns="http://www.w3.org/2000/svg" xmlns:xlink="http://www.w3.org/1999/xlink" width="500" zoomAndPan="magnify" viewBox="0 0 375 374.999991" height="500" preserveAspectRatio="xMidYMid meet" version="1.0"><defs><g/></defs><g fill="#ff1616" fill-opacity="1"><g transform="translate(134.273433, 200.262481)"><g><path d="M 17.984375 -66.0625 L 17.984375 0 L 5.078125 0 L 5.078125 -91.203125 L 23.0625 -91.203125 L 37.78125 -36.609375 L 37.78125 -91.203125 L 50.5625 -91.203125 L 50.5625 0 L 35.828125 0 Z M 17.984375 -66.0625 "/></g></g></g><g fill="#ff1616" fill-opacity="1"><g transform="translate(189.906845, 200.262481)"><g><path d="M 26.703125 -50.8125 L 46.78125 -50.8125 L 46.78125 -21.890625 C 46.78125 -14.503906 44.976562 -8.832031 41.375 -4.875 C 37.769531 -0.925781 32.445312 1.046875 25.40625 1.046875 C 18.375 1.046875 13.054688 -0.925781 9.453125 -4.875 C 5.847656 -8.832031 4.046875 -14.503906 4.046875 -21.890625 L 4.046875 -69.3125 C 4.046875 -76.695312 5.847656 -82.363281 9.453125 -86.3125 C 13.054688 -90.269531 18.375 -92.25 25.40625 -92.25 C 32.445312 -92.25 37.769531 -90.269531 41.375 -86.3125 C 44.976562 -82.363281 46.78125 -76.695312 46.78125 -69.3125 L 46.78125 -60.453125 L 33.21875 -60.453125 L 33.21875 -70.234375 C 33.21875 -73.535156 32.546875 -75.859375 31.203125 -77.203125 C 29.859375 -78.546875 28.054688 -79.21875 25.796875 -79.21875 C 23.535156 -79.21875 21.734375 -78.546875 20.390625 -77.203125 C 19.046875 -75.859375 18.375 -73.535156 18.375 -70.234375 L 18.375 -20.984375 C 18.375 -17.679688 19.046875 -15.378906 20.390625 -14.078125 C 21.734375 -12.773438 23.535156 -12.125 25.796875 -12.125 C 28.054688 -12.125 29.859375 -12.773438 31.203125 -14.078125 C 32.546875 -15.378906 33.21875 -17.679688 33.21875 -20.984375 L 33.21875 -37.78125 L 26.703125 -37.78125 Z M 26.703125 -50.8125 "/></g></g></g><g fill="#ffffff" fill-opacity="1"><g transform="translate(66.043978, 249.876631)"><g><path d="M 0.460938 -1.199219 C 1 -1.292969 1.394531 -1.585938 1.753906 -2.09375 C 2.773438 -3.28125 2.996094 -4.546875 3.523438 -5.980469 C 4.722656 -9.316406 5.902344 -12.765625 7.085938 -16.210938 C 8.054688 -18.949219 9.148438 -21.597656 10.609375 -24.089844 C 10.878906 -24.472656 11.019531 -24.941406 11.246094 -25.542969 C 11.496094 -26.03125 11.800781 -26.195312 12.253906 -26.164062 C 12.816406 -26.152344 13.214844 -25.777344 13.203125 -25.214844 C 13.191406 -24.65625 13.175781 -24.09375 13.253906 -23.660156 C 13.539062 -22.035156 13.71875 -20.394531 13.894531 -18.75 C 14.199219 -17.015625 14.46875 -15.5 15.511719 -14.007812 C 16.1875 -13.347656 16.785156 -13.117188 17.542969 -13.25 C 17.652344 -13.269531 17.957031 -13.433594 18.371094 -13.617188 C 19.074219 -14.078125 19.734375 -14.753906 20.179688 -15.390625 C 20.628906 -16.027344 21.164062 -16.789062 21.609375 -17.425781 C 22.234375 -18.320312 22.949219 -19.335938 23.574219 -20.230469 C 24.195312 -21.121094 24.929688 -22.03125 25.808594 -22.746094 C 26.410156 -22.515625 26.9375 -22.050781 27.25 -21.546875 C 27.453125 -21.023438 27.871094 -20.539062 28.292969 -20.054688 C 29.808594 -18.425781 31.476562 -17.824219 33.320312 -18.148438 C 34.183594 -18.300781 35.03125 -18.5625 35.734375 -19.019531 C 37.117188 -20.046875 38.28125 -21.03125 39.210938 -22.089844 L 44.738281 -28.757812 C 45.203125 -29.285156 45.648438 -29.921875 45.988281 -30.539062 C 46.613281 -31.433594 46.5 -32.082031 45.734375 -32.617188 C 45.460938 -32.902344 45.097656 -33.0625 44.664062 -32.988281 C 44.339844 -32.929688 44.050781 -32.65625 43.566406 -32.234375 C 43.515625 -31.890625 43.320312 -31.746094 43.230469 -31.617188 C 41.316406 -29.160156 39.207031 -26.554688 37.078125 -24.058594 C 36.238281 -23.128906 34.230469 -21.210938 32.824219 -20.964844 C 32.171875 -20.851562 31.464844 -21.0625 30.808594 -21.617188 C 30.28125 -22.082031 29.859375 -22.566406 29.402344 -23.265625 C 29.238281 -23.570312 29.070312 -23.878906 28.90625 -24.183594 C 28.742188 -24.488281 28.46875 -24.777344 28.191406 -25.0625 C 27.589844 -25.960938 26.753906 -26.261719 25.777344 -26.089844 C 25.671875 -26.070312 25.257812 -25.886719 24.734375 -25.683594 C 24.140625 -25.242188 23.566406 -24.695312 22.90625 -24.019531 C 22.460938 -23.382812 21.921875 -22.617188 21.476562 -21.980469 C 20.921875 -21.328125 20.386719 -20.5625 19.941406 -19.925781 L 18.226562 -17.613281 C 18.117188 -17.59375 18.117188 -17.59375 18.027344 -17.46875 C 17.488281 -17.371094 17.125 -17.53125 17.046875 -17.964844 C 16.992188 -18.289062 16.914062 -18.722656 16.839844 -19.15625 C 16.652344 -19.570312 16.578125 -20.003906 16.5 -20.4375 C 16.457031 -21.320312 16.304688 -22.1875 16.261719 -23.074219 C 16.214844 -23.960938 16.0625 -24.824219 15.890625 -25.800781 C 15.773438 -27.117188 15.542969 -28.417969 14.792969 -29.515625 C 14.296875 -30.433594 13.550781 -30.859375 12.574219 -30.6875 C 12.25 -30.628906 11.835938 -30.445312 11.441406 -30.152344 C 8.878906 -27.582031 7.066406 -23.910156 5.742188 -20.664062 C 5.035156 -18.976562 4.433594 -17.308594 3.835938 -15.636719 C 3.253906 -13.859375 2.65625 -12.191406 2.054688 -10.523438 C 1.964844 -10.394531 1.894531 -10.160156 1.824219 -9.925781 C 1.753906 -9.6875 1.667969 -9.5625 1.339844 -9.503906 C 1.125 -9.464844 0.910156 -9.429688 0.78125 -9.515625 C 0.851562 -9.753906 0.8125 -9.96875 0.773438 -10.1875 C 0.628906 -10.382812 0.589844 -10.601562 0.640625 -10.945312 C 0.957031 -19.933594 1.921875 -29.035156 4.320312 -37.609375 C 4.441406 -38.1875 4.582031 -38.660156 4.8125 -39.257812 C 4.953125 -39.730469 4.859375 -40.273438 4.652344 -40.792969 C 4.488281 -41.101562 3.851562 -41.546875 3.527344 -41.488281 C 3.417969 -41.46875 3.222656 -41.324219 2.914062 -41.160156 C 0.742188 -39.546875 -1.277344 -23.113281 -1.648438 -20.144531 C -2.300781 -14.335938 -2.589844 -8.367188 -1.578125 -2.625 C -1.425781 -1.757812 -0.898438 -1.292969 -0.101562 -1.210938 C 0.0273438 -1.121094 0.242188 -1.160156 0.460938 -1.199219 Z M 0.460938 -1.199219 "/></g></g></g><g fill="#ffffff" fill-opacity="1"><g transform="translate(110.990841, 241.963583)"><g><path d="M 4.289062 -5.445312 C 11.761719 -6.761719 21.191406 -19.808594 25.417969 -26.25 C 25.773438 -26.757812 26.039062 -27.140625 26.09375 -27.484375 C 26.320312 -28.082031 26.117188 -28.605469 25.480469 -29.050781 C 25.226562 -29.230469 24.992188 -29.300781 24.664062 -29.242188 C 24.449219 -29.207031 24.144531 -29.039062 23.855469 -28.765625 C 23.589844 -28.382812 23.320312 -28 23.054688 -27.621094 C 22.785156 -27.238281 22.410156 -26.835938 22.140625 -26.453125 C 21.050781 -25.035156 19.960938 -23.613281 18.980469 -22.210938 C 17.890625 -20.792969 16.820312 -19.265625 15.730469 -17.84375 C 13.105469 -14.367188 8.730469 -10.023438 4.550781 -8.394531 C 2.492188 -8.03125 1.304688 -7.824219 0.429688 -10.238281 C -0.359375 -11.550781 -0.675781 -12.722656 -0.5625 -13.96875 C -0.546875 -14.53125 -0.28125 -14.914062 0.132812 -15.097656 C 5.238281 -16.554688 10.933594 -24.144531 10.867188 -29.605469 C 10.753906 -32.152344 9.078125 -33.421875 6.914062 -33.039062 C 6.804688 -33.023438 6.585938 -32.984375 6.480469 -32.964844 C 6.390625 -32.835938 6.171875 -32.800781 6.066406 -32.78125 C 0.476562 -30.902344 -2.410156 -22.578125 -3.355469 -17.164062 C -3.503906 -15.460938 -3.671875 -13.871094 -3.238281 -12.046875 C -3.136719 -10.835938 -2.582031 -9.59375 -1.941406 -8.480469 C -0.703125 -5.90625 1.367188 -4.929688 4.289062 -5.445312 Z M 0.96875 -18.59375 C 0.878906 -18.46875 0.644531 -18.539062 0.300781 -18.589844 C 0.191406 -18.570312 0.046875 -18.765625 -0.0117188 -19.09375 C 0.589844 -22.660156 3.316406 -28.722656 6.796875 -29.894531 C 7.320312 -30.097656 7.683594 -29.9375 7.925781 -29.199219 C 8.535156 -25.734375 3.519531 -20.605469 0.96875 -18.59375 Z M 0.96875 -18.59375 "/></g></g></g><g fill="#ffffff" fill-opacity="1"><g transform="translate(135.684555, 237.616171)"><g><path d="M 13.03125 37.234375 C 16.824219 36.566406 20.5625 20.386719 21.195312 16.367188 C 21.609375 14.285156 21.914062 12.222656 22.222656 10.15625 C 22.527344 8.09375 22.835938 6.03125 23.25 3.945312 C 23.875 -0.742188 32.640625 -13.117188 35.644531 -16.996094 C 38.84375 -21.019531 41.773438 -24.664062 44.757812 -28.648438 C 44.9375 -28.902344 45.113281 -29.160156 45.382812 -29.539062 C 45.5625 -29.796875 45.738281 -30.050781 45.898438 -30.414062 C 46.238281 -31.03125 46.140625 -31.574219 45.613281 -32.039062 C 45.339844 -32.324219 44.976562 -32.484375 44.542969 -32.40625 C 44.433594 -32.386719 44.238281 -32.242188 43.929688 -32.078125 L 42.535156 -30.492188 C 37.117188 -23.84375 31.9375 -17.125 27.261719 -10.046875 C 26.996094 -9.664062 26.746094 -9.175781 26.585938 -8.8125 C 26.320312 -8.429688 25.925781 -8.136719 25.402344 -7.933594 C 24.945312 -8.632812 25.066406 -9.214844 25.257812 -10.03125 C 25.878906 -17.285156 26.625 -24.453125 27.894531 -31.820312 C 28.089844 -32.636719 28.152344 -33.542969 28.214844 -34.445312 C 28.28125 -35.351562 28.34375 -36.253906 28.410156 -37.160156 C 28.382812 -37.9375 28.050781 -38.550781 27.21875 -38.847656 C 26.980469 -38.917969 26.636719 -38.96875 26.3125 -38.914062 C 25.878906 -38.835938 25.574219 -38.671875 25.304688 -38.289062 C 24.644531 -37.613281 24.109375 -36.851562 23.574219 -36.085938 C 22.929688 -35.300781 22.394531 -34.539062 21.75 -33.753906 C 21.660156 -33.628906 21.480469 -33.371094 21.410156 -33.136719 C 21.234375 -32.882812 20.925781 -32.714844 20.601562 -32.660156 C 20.386719 -32.621094 20.167969 -32.582031 20.042969 -32.671875 C 19.296875 -36.894531 15.558594 -38.472656 11.769531 -37.804688 C 10.035156 -37.5 8.507812 -36.671875 7.015625 -35.628906 C 1.109375 -31.125 -2.09375 -25.203125 -2.695312 -17.839844 C -2.765625 -15.703125 -2.65625 -13.824219 -1.863281 -11.84375 C -0.882812 -9.449219 0.855469 -9.082031 3.132812 -9.484375 C 5.691406 -10.160156 10.816406 -15.304688 12.660156 -17.527344 C 14.429688 -19.511719 16.074219 -21.589844 17.71875 -23.664062 C 19.253906 -25.722656 20.898438 -27.796875 22.542969 -29.875 C 22.8125 -30.257812 23.0625 -30.746094 23.328125 -31.128906 C 23.597656 -31.511719 23.972656 -31.914062 24.496094 -32.117188 C 24.992188 -31.199219 24.871094 -30.621094 24.679688 -29.804688 C 24.035156 -25.222656 23.496094 -20.664062 23.046875 -16.230469 C 22.492188 -11.777344 21.957031 -7.214844 21.417969 -2.652344 C 21.238281 -0.5 20.480469 1.53125 19.378906 3.511719 C 15.105469 10.964844 10.175781 21.65625 9.589844 30.359375 C 9.480469 32.277344 9.804688 34.117188 10.414062 35.683594 C 11.074219 36.910156 11.949219 37.425781 13.03125 37.234375 Z M 13.007812 32.660156 C 12.878906 32.570312 12.878906 32.570312 12.753906 32.480469 C 12.625 32.394531 12.519531 32.410156 12.5 32.304688 C 12.550781 31.960938 12.511719 31.742188 12.453125 31.417969 C 12.398438 31.09375 12.46875 30.855469 12.519531 30.511719 C 12.792969 25.105469 15.503906 17.035156 18.136719 12.328125 C 18.480469 12.378906 18.738281 12.558594 18.773438 12.773438 C 18.8125 12.992188 18.851562 13.207031 18.761719 13.335938 C 17.753906 19.652344 16.234375 25.617188 13.8125 31.515625 C 13.761719 31.859375 13.582031 32.113281 13.3125 32.496094 C 13.207031 32.515625 13.207031 32.515625 13.226562 32.621094 C 13.117188 32.640625 13.117188 32.640625 13.007812 32.660156 Z M 2.203125 -12.222656 C 1.445312 -12.089844 0.917969 -12.554688 0.636719 -13.511719 C 0.316406 -14.683594 0.128906 -15.765625 0.191406 -16.671875 C 0.398438 -23.742188 3.421875 -29.410156 9.058594 -33.53125 C 10.175781 -34.171875 10.984375 -34.652344 12.175781 -34.859375 C 14.339844 -35.242188 16.425781 -34.828125 17.1875 -32.394531 L 17.511719 -30.550781 C 17.9375 -29.398438 17.605469 -28.113281 16.410156 -26.671875 C 13.476562 -23.03125 10.5625 -19.277344 7.230469 -16.011719 C 5.996094 -14.789062 4.628906 -13.65625 3.140625 -12.613281 C 2.726562 -12.425781 2.417969 -12.261719 2.203125 -12.222656 Z M 2.203125 -12.222656 "/></g></g></g><g fill="#ffffff" fill-opacity="1"><g transform="translate(180.306497, 229.760327)"><g><path d="M -1.097656 -9.410156 C 0.308594 -9.65625 1.882812 -11.496094 2.707031 -12.535156 C 4.976562 -15.503906 6.898438 -18.523438 8.875 -21.886719 C 9.144531 -22.265625 9.5 -22.777344 9.75 -23.265625 C 10 -23.757812 10.484375 -24.179688 11.183594 -24.636719 C 10.941406 -21.578125 10.785156 -18.648438 11.300781 -15.722656 C 11.664062 -13.667969 12.71875 -12.734375 14.5625 -13.058594 C 14.996094 -13.136719 15.320312 -13.195312 15.515625 -13.339844 C 19.933594 -14.898438 26.34375 -23.507812 28.933594 -27.203125 C 29.023438 -27.332031 29.199219 -27.585938 29.289062 -27.710938 C 29.378906 -27.839844 29.359375 -27.949219 29.449219 -28.074219 C 29.53125 -28.871094 29.328125 -29.394531 28.730469 -29.625 C 28.476562 -29.800781 28.238281 -29.871094 27.914062 -29.816406 C 27.804688 -29.796875 27.71875 -29.667969 27.410156 -29.503906 C 27.125 -29.230469 26.835938 -28.957031 26.660156 -28.699219 C 26.390625 -28.320312 26.105469 -28.046875 25.835938 -27.664062 C 24.996094 -26.734375 24.261719 -25.824219 23.636719 -24.929688 C 22.90625 -24.019531 22.191406 -23 21.351562 -22.070312 C 20.261719 -20.652344 19.003906 -19.535156 17.859375 -18.441406 C 16.976562 -17.730469 16.078125 -17.125 15.179688 -16.519531 C 15.09375 -16.390625 14.984375 -16.371094 14.765625 -16.335938 C 14.332031 -16.257812 14.058594 -16.542969 13.945312 -17.195312 C 13.125 -21.851562 15.089844 -30.347656 16.425781 -34.828125 C 16.546875 -35.40625 16.6875 -35.878906 16.914062 -36.476562 C 17.054688 -36.949219 17.195312 -37.417969 17.316406 -38 C 17.472656 -39.03125 17.230469 -39.769531 16.394531 -40.070312 C 16.050781 -40.121094 15.816406 -40.191406 15.707031 -40.171875 C 15.382812 -40.113281 14.988281 -39.820312 14.539062 -39.183594 C 14.273438 -38.804688 14.132812 -38.332031 13.972656 -37.96875 C 13.722656 -37.476562 13.585938 -37.007812 13.316406 -36.625 C 12.820312 -35.644531 12.320312 -34.664062 11.933594 -33.703125 C 11.433594 -32.71875 10.9375 -31.738281 10.421875 -30.867188 C 10.082031 -30.25 9.816406 -29.867188 9.601562 -29.828125 C 9.492188 -29.808594 9.128906 -29.96875 8.53125 -30.199219 C 7.292969 -30.875 6.132812 -31.117188 5.050781 -30.925781 C 3.859375 -30.71875 2.746094 -30.074219 1.726562 -28.890625 C 1.0625 -28.214844 0.597656 -27.6875 0.347656 -27.195312 C -2.328125 -23.375 -4.777344 -16.355469 -3.9375 -11.589844 C -3.523438 -9.875 -2.507812 -9.160156 -1.097656 -9.410156 Z M -0.808594 -13.480469 C -0.828125 -13.589844 -0.828125 -13.589844 -0.9375 -13.570312 L -1.066406 -13.660156 C -1.019531 -18.46875 0.460938 -22.75 3.304688 -26.265625 C 3.75 -26.902344 4.917969 -27.886719 5.675781 -28.019531 C 6.214844 -28.117188 6.6875 -27.976562 7.285156 -27.746094 C 7.886719 -27.515625 8.089844 -26.996094 7.988281 -26.308594 C 7.933594 -25.960938 7.738281 -25.816406 7.648438 -25.6875 C 5.355469 -21.601562 3.058594 -17.511719 0.109375 -13.976562 C -0.0703125 -13.722656 -0.375 -13.554688 -0.808594 -13.480469 Z M -0.808594 -13.480469 "/></g></g></g><g fill="#ffffff" fill-opacity="1"><g transform="translate(208.357684, 224.82182)"><g><path d="M 0.765625 8.796875 C 5.53125 7.957031 7.21875 -1.496094 6.742188 -6.101562 C 6.710938 -7.546875 7.257812 -8.871094 8.296875 -9.949219 L 16.164062 -17.921875 C 18.507812 -20.453125 20.890625 -22.773438 23.453125 -25.34375 C 24.117188 -26.019531 24.671875 -26.675781 24.902344 -27.273438 C 25.347656 -27.910156 25.144531 -28.433594 24.398438 -28.859375 C 24.144531 -29.039062 23.90625 -29.109375 23.582031 -29.050781 C 23.257812 -28.996094 22.953125 -28.828125 22.664062 -28.554688 C 22.398438 -28.175781 22.109375 -27.898438 21.804688 -27.734375 L 8.046875 -13.921875 C 7.667969 -13.519531 7.183594 -13.101562 6.59375 -12.660156 C 6.171875 -13.144531 5.898438 -13.433594 5.878906 -13.542969 C 4.867188 -17.382812 3.550781 -21.058594 2.105469 -24.824219 C 1.902344 -25.347656 1.679688 -25.976562 1.585938 -26.519531 C 1.488281 -27.0625 1.375 -27.710938 1.386719 -28.273438 C 1.007812 -32.335938 3.882812 -36.304688 7.890625 -37.007812 C 8.214844 -37.066406 8.429688 -37.105469 8.519531 -37.230469 C 9.21875 -37.691406 9.285156 -38.59375 8.648438 -39.042969 C 7.628906 -39.753906 7.085938 -39.660156 5.894531 -39.449219 C 4.703125 -39.242188 3.679688 -38.726562 2.710938 -37.882812 C -0.605469 -34.507812 -2.269531 -30.644531 -1.085938 -25.828125 C -0.730469 -24.4375 -0.371094 -23.046875 0.199219 -21.699219 C 1.550781 -18.472656 2.515625 -15.515625 3.214844 -12.179688 C 3.578125 -10.121094 3.480469 -8.765625 2.085938 -7.179688 C -0.207031 -4.988281 -3.585938 1.191406 -3.613281 4.210938 C -3.613281 6.109375 -3.003906 7.675781 -1.0625 8.5625 C -0.460938 8.792969 0.226562 8.894531 0.765625 8.796875 Z M 0.449219 5.726562 C 0.125 5.785156 -0.00390625 5.695312 -0.148438 5.496094 C -0.402344 5.320312 -0.570312 5.011719 -0.625 4.6875 C -0.773438 4.492188 -0.8125 4.273438 -0.757812 3.929688 C -0.152344 1.03125 1.289062 -1.566406 3.453125 -3.847656 C 3.957031 -0.363281 2.921875 3.28125 1.152344 5.269531 C 0.972656 5.523438 0.773438 5.671875 0.449219 5.726562 Z M 0.449219 5.726562 "/></g></g></g><g fill="#ffffff" fill-opacity="1"><g transform="translate(231.968339, 220.665084)"><g><path d="M 4.289062 -5.445312 C 11.761719 -6.761719 21.191406 -19.808594 25.417969 -26.25 C 25.773438 -26.757812 26.039062 -27.140625 26.09375 -27.484375 C 26.320312 -28.082031 26.117188 -28.605469 25.480469 -29.050781 C 25.226562 -29.230469 24.992188 -29.300781 24.664062 -29.242188 C 24.449219 -29.207031 24.144531 -29.039062 23.855469 -28.765625 C 23.589844 -28.382812 23.320312 -28 23.054688 -27.621094 C 22.785156 -27.238281 22.410156 -26.835938 22.140625 -26.453125 C 21.050781 -25.035156 19.960938 -23.613281 18.980469 -22.210938 C 17.890625 -20.792969 16.820312 -19.265625 15.730469 -17.84375 C 13.105469 -14.367188 8.730469 -10.023438 4.550781 -8.394531 C 2.492188 -8.03125 1.304688 -7.824219 0.429688 -10.238281 C -0.359375 -11.550781 -0.675781 -12.722656 -0.5625 -13.96875 C -0.546875 -14.53125 -0.28125 -14.914062 0.132812 -15.097656 C 5.238281 -16.554688 10.933594 -24.144531 10.867188 -29.605469 C 10.753906 -32.152344 9.078125 -33.421875 6.914062 -33.039062 C 6.804688 -33.023438 6.585938 -32.984375 6.480469 -32.964844 C 6.390625 -32.835938 6.171875 -32.800781 6.066406 -32.78125 C 0.476562 -30.902344 -2.410156 -22.578125 -3.355469 -17.164062 C -3.503906 -15.460938 -3.671875 -13.871094 -3.238281 -12.046875 C -3.136719 -10.835938 -2.582031 -9.59375 -1.941406 -8.480469 C -0.703125 -5.90625 1.367188 -4.929688 4.289062 -5.445312 Z M 0.96875 -18.59375 C 0.878906 -18.46875 0.644531 -18.539062 0.300781 -18.589844 C 0.191406 -18.570312 0.046875 -18.765625 -0.0117188 -19.09375 C 0.589844 -22.660156 3.316406 -28.722656 6.796875 -29.894531 C 7.320312 -30.097656 7.683594 -29.9375 7.925781 -29.199219 C 8.535156 -25.734375 3.519531 -20.605469 0.96875 -18.59375 Z M 0.96875 -18.59375 "/></g></g></g><g fill="#ffffff" fill-opacity="1"><g transform="translate(256.662053, 216.317672)"><g><path d="M -0.730469 -0.988281 C -0.300781 -1.0625 0.0078125 -1.230469 0.292969 -1.503906 C 0.847656 -2.160156 1.292969 -2.796875 1.484375 -3.613281 C 1.695312 -4.320312 1.90625 -5.027344 2.117188 -5.734375 C 4.273438 -13.148438 7.246094 -20.371094 11.980469 -26.453125 C 12.160156 -26.707031 12.355469 -26.851562 12.683594 -26.910156 C 13.007812 -26.96875 13.390625 -26.699219 13.59375 -26.175781 C 13.890625 -25.113281 14.296875 -24.066406 14.578125 -23.113281 C 14.878906 -22.046875 15.175781 -20.984375 15.476562 -19.921875 C 15.8125 -18.640625 16.367188 -17.398438 17.371094 -16.121094 C 18.503906 -14.757812 19.832031 -14.210938 21.238281 -14.457031 C 21.347656 -14.476562 21.5625 -14.515625 21.761719 -14.664062 C 21.871094 -14.679688 22.085938 -14.71875 22.195312 -14.738281 C 23.761719 -15.351562 25.035156 -16.355469 26.125 -17.777344 C 27.125 -19.070312 32.507812 -25.933594 33.488281 -27.335938 C 33.84375 -27.84375 34.074219 -28.441406 34.195312 -29.023438 C 34.316406 -29.601562 34.113281 -30.125 33.496094 -30.460938 C 33.242188 -30.640625 33.003906 -30.710938 32.679688 -30.652344 C 32.355469 -30.597656 32.15625 -30.449219 31.980469 -30.195312 C 31.78125 -30.050781 31.621094 -29.6875 31.355469 -29.304688 C 31.085938 -28.921875 30.460938 -28.03125 29.441406 -26.847656 C 28.621094 -25.808594 27.796875 -24.769531 27.085938 -23.75 C 26.28125 -22.605469 25.566406 -21.585938 24.746094 -20.546875 C 23.726562 -19.363281 22.792969 -18.304688 21.570312 -17.644531 C 21.464844 -17.625 21.355469 -17.605469 21.355469 -17.605469 C 21.265625 -17.476562 21.15625 -17.460938 21.046875 -17.441406 C 20.398438 -17.324219 19.910156 -17.574219 19.597656 -18.078125 C 18.882812 -18.957031 18.367188 -19.984375 18.03125 -21.265625 C 17.769531 -22.109375 17.507812 -22.957031 17.355469 -23.824219 C 17.09375 -24.671875 16.835938 -25.519531 16.554688 -26.476562 C 15.90625 -28.257812 15.125 -30.800781 12.632812 -30.363281 C 8.410156 -29.621094 2.261719 -15.695312 1.070312 -11.6875 C 0.609375 -12.390625 0.386719 -13.019531 0.597656 -13.726562 C 0.699219 -14.417969 0.800781 -15.105469 0.90625 -15.792969 C 1.511719 -18.691406 2.097656 -21.695312 2.6875 -24.703125 C 3.183594 -27.582031 3.769531 -30.589844 4.378906 -33.488281 L 4.796875 -34.902344 C 4.988281 -35.71875 4.765625 -36.347656 3.933594 -36.648438 C 3.589844 -36.699219 3.351562 -36.769531 3.246094 -36.75 C 2.054688 -36.539062 1.59375 -33.445312 1.113281 -32.355469 C 0.617188 -29.476562 0.0117188 -26.578125 -0.488281 -23.699219 C -0.984375 -20.820312 -1.589844 -17.921875 -2.089844 -15.042969 C -2.652344 -11.257812 -3.105469 -7.492188 -2.871094 -3.625 C -2.757812 -2.976562 -2.679688 -2.542969 -2.515625 -2.238281 C -2.234375 -1.28125 -1.597656 -0.835938 -0.730469 -0.988281 Z M -0.730469 -0.988281 "/></g></g></g><g fill="#ffffff" fill-opacity="1"><g transform="translate(289.478692, 210.540191)"><g><path d="M -1.097656 -9.410156 C 0.308594 -9.65625 1.882812 -11.496094 2.707031 -12.535156 C 4.976562 -15.503906 6.898438 -18.523438 8.875 -21.886719 C 9.144531 -22.265625 9.5 -22.777344 9.75 -23.265625 C 10 -23.757812 10.484375 -24.179688 11.183594 -24.636719 C 10.941406 -21.578125 10.785156 -18.648438 11.300781 -15.722656 C 11.664062 -13.667969 12.71875 -12.734375 14.5625 -13.058594 C 14.996094 -13.136719 15.320312 -13.195312 15.515625 -13.339844 C 19.933594 -14.898438 26.34375 -23.507812 28.933594 -27.203125 C 29.023438 -27.332031 29.199219 -27.585938 29.289062 -27.710938 C 29.378906 -27.839844 29.359375 -27.949219 29.449219 -28.074219 C 29.53125 -28.871094 29.328125 -29.394531 28.730469 -29.625 C 28.476562 -29.800781 28.238281 -29.871094 27.914062 -29.816406 C 27.804688 -29.796875 27.71875 -29.667969 27.410156 -29.503906 C 27.125 -29.230469 26.835938 -28.957031 26.660156 -28.699219 C 26.390625 -28.320312 26.105469 -28.046875 25.835938 -27.664062 C 24.996094 -26.734375 24.261719 -25.824219 23.636719 -24.929688 C 22.90625 -24.019531 22.191406 -23 21.351562 -22.070312 C 20.261719 -20.652344 19.003906 -19.535156 17.859375 -18.441406 C 16.976562 -17.730469 16.078125 -17.125 15.179688 -16.519531 C 15.09375 -16.390625 14.984375 -16.371094 14.765625 -16.335938 C 14.332031 -16.257812 14.058594 -16.542969 13.945312 -17.195312 C 13.125 -21.851562 15.089844 -30.347656 16.425781 -34.828125 C 16.546875 -35.40625 16.6875 -35.878906 16.914062 -36.476562 C 17.054688 -36.949219 17.195312 -37.417969 17.316406 -38 C 17.472656 -39.03125 17.230469 -39.769531 16.394531 -40.070312 C 16.050781 -40.121094 15.816406 -40.191406 15.707031 -40.171875 C 15.382812 -40.113281 14.988281 -39.820312 14.539062 -39.183594 C 14.273438 -38.804688 14.132812 -38.332031 13.972656 -37.96875 C 13.722656 -37.476562 13.585938 -37.007812 13.316406 -36.625 C 12.820312 -35.644531 12.320312 -34.664062 11.933594 -33.703125 C 11.433594 -32.71875 10.9375 -31.738281 10.421875 -30.867188 C 10.082031 -30.25 9.816406 -29.867188 9.601562 -29.828125 C 9.492188 -29.808594 9.128906 -29.96875 8.53125 -30.199219 C 7.292969 -30.875 6.132812 -31.117188 5.050781 -30.925781 C 3.859375 -30.71875 2.746094 -30.074219 1.726562 -28.890625 C 1.0625 -28.214844 0.597656 -27.6875 0.347656 -27.195312 C -2.328125 -23.375 -4.777344 -16.355469 -3.9375 -11.589844 C -3.523438 -9.875 -2.507812 -9.160156 -1.097656 -9.410156 Z M -0.808594 -13.480469 C -0.828125 -13.589844 -0.828125 -13.589844 -0.9375 -13.570312 L -1.066406 -13.660156 C -1.019531 -18.46875 0.460938 -22.75 3.304688 -26.265625 C 3.75 -26.902344 4.917969 -27.886719 5.675781 -28.019531 C 6.214844 -28.117188 6.6875 -27.976562 7.285156 -27.746094 C 7.886719 -27.515625 8.089844 -26.996094 7.988281 -26.308594 C 7.933594 -25.960938 7.738281 -25.816406 7.648438 -25.6875 C 5.355469 -21.601562 3.058594 -17.511719 0.109375 -13.976562 C -0.0703125 -13.722656 -0.375 -13.554688 -0.808594 -13.480469 Z M -0.808594 -13.480469 "/></g></g></g></svg>